<svg width="36" height="36" viewBox="0 0 36 36" fill="none" xmlns="http://www.w3.org/2000/svg">
<path d="M22.654 12.5289C22.654 11.7077 21.991 11.5213 21.1732 11.5213C20.3554 11.5213 19.6924 12.187 19.6924 13.0081C19.6924 15.6771 22.654 17.0155 22.654 17.0155C22.654 17.0155 25.6155 15.5779 25.6155 13.0081C25.6155 12.187 24.9526 11.5213 24.1347 11.5213C23.3169 11.5213 22.654 11.7077 22.654 12.5289Z" stroke="#010115" stroke-width="2.3" stroke-linejoin="round"/>
<path d="M13.4215 12.5289C13.4215 11.7077 12.7586 11.5213 11.9407 11.5213C11.1229 11.5213 10.46 12.187 10.46 13.0081C10.46 15.6771 13.4215 17.0155 13.4215 17.0155C13.4215 17.0155 16.3831 15.5779 16.3831 13.0081C16.3831 12.187 15.7201 11.5213 14.9023 11.5213C14.0845 11.5213 13.4215 11.7077 13.4215 12.5289Z" stroke="#010115" stroke-width="2.3" stroke-linejoin="round"/>
<circle cx="18.0004" cy="18.0001" r="12.7191" stroke="#010115" stroke-width="2.3"/>
<path d="M26.6895 20.2507C26.6895 19.6156 26.1746 19.1007 25.5395 19.1007C24.9043 19.1007 24.3895 19.6156 24.3895 20.2507H26.6895ZM17.9997 26.5063V25.3563V26.5063ZM11.61 20.2507C11.61 19.6156 11.0951 19.1007 10.46 19.1007C9.82483 19.1007 9.30996 19.6156 9.30996 20.2507L11.61 20.2507ZM24.3895 20.2507C24.3895 20.888 24.2386 21.5262 23.9366 22.131L25.9944 23.1583C26.4503 22.2452 26.6895 21.2564 26.6895 20.2507H24.3895ZM23.9366 22.131C23.6341 22.7369 23.183 23.3027 22.5968 23.7891L24.0654 25.5592C24.8794 24.8838 25.5391 24.0703 25.9944 23.1583L23.9366 22.131ZM22.5968 23.7891C22.0103 24.2757 21.303 24.6705 20.5113 24.9426L21.2588 27.1177C22.2966 26.7611 23.2517 26.2343 24.0654 25.5592L22.5968 23.7891ZM20.5113 24.9426C19.7196 25.2146 18.8657 25.3563 17.9997 25.3563V27.6563C19.114 27.6563 20.2209 27.4744 21.2588 27.1177L20.5113 24.9426ZM17.9997 25.3563C17.1337 25.3563 16.2798 25.2146 15.4881 24.9426L14.7406 27.1177C15.7785 27.4744 16.8854 27.6563 17.9997 27.6563V25.3563ZM15.4881 24.9426C14.6964 24.6705 13.9892 24.2757 13.4026 23.7891L11.934 25.5592C12.7477 26.2343 13.7028 26.7611 14.7406 27.1177L15.4881 24.9426ZM13.4026 23.7891C12.8164 23.3027 12.3653 22.7369 12.0628 22.131L10.005 23.1583C10.4603 24.0703 11.12 24.8838 11.934 25.5592L13.4026 23.7891ZM12.0628 22.131C11.7608 21.5262 11.61 20.888 11.61 20.2507L9.30996 20.2507C9.30996 21.2564 9.54912 22.2452 10.005 23.1583L12.0628 22.131Z" fill="#010115"/>
</svg>
