<svg width="36" height="36" viewBox="0 0 36 36" fill="none" xmlns="http://www.w3.org/2000/svg">
<path d="M22.6541 12.5289C22.6541 11.7078 21.9911 11.5214 21.1733 11.5214C20.3555 11.5214 19.6925 12.1871 19.6925 13.0082C19.6925 15.6772 22.6541 17.0156 22.6541 17.0156C22.6541 17.0156 25.6157 15.578 25.6157 13.0082C25.6157 12.1871 24.9527 11.5214 24.1349 11.5214C23.3171 11.5214 22.6541 11.7078 22.6541 12.5289Z" stroke="#FFFEFC" stroke-width="2.3" stroke-linejoin="round"/>
<path d="M13.4218 12.5289C13.4218 11.7078 12.7588 11.5214 11.941 11.5214C11.1232 11.5214 10.4602 12.1871 10.4602 13.0082C10.4602 15.6772 13.4218 17.0156 13.4218 17.0156C13.4218 17.0156 16.3834 15.578 16.3834 13.0082C16.3834 12.1871 15.7204 11.5214 14.9026 11.5214C14.0848 11.5214 13.4218 11.7078 13.4218 12.5289Z" stroke="#FFFEFC" stroke-width="2.3" stroke-linejoin="round"/>
<circle cx="18" cy="18.0001" r="12.7191" stroke="#FFFEFC" stroke-width="2.3"/>
<path d="M26.6897 20.2507C26.6897 19.6156 26.1748 19.1007 25.5397 19.1007C24.9046 19.1007 24.3897 19.6156 24.3897 20.2507H26.6897ZM18 26.5063V25.3563V26.5063ZM11.6102 20.2507C11.6102 19.6156 11.0953 19.1007 10.4602 19.1007C9.82508 19.1007 9.31021 19.6156 9.31021 20.2507L11.6102 20.2507ZM24.3897 20.2507C24.3897 20.888 24.2388 21.5262 23.9369 22.131L25.9947 23.1583C26.4505 22.2452 26.6897 21.2564 26.6897 20.2507H24.3897ZM23.9369 22.131C23.6344 22.7369 23.1833 23.3027 22.5971 23.7891L24.0657 25.5592C24.8797 24.8838 25.5394 24.0703 25.9947 23.1583L23.9369 22.131ZM22.5971 23.7891C22.0105 24.2757 21.3032 24.6705 20.5115 24.9426L21.259 27.1177C22.2969 26.7611 23.252 26.2343 24.0657 25.5592L22.5971 23.7891ZM20.5115 24.9426C19.7199 25.2146 18.866 25.3563 18 25.3563V27.6563C19.1142 27.6563 20.2212 27.4744 21.259 27.1177L20.5115 24.9426ZM18 25.3563C17.1339 25.3563 16.28 25.2146 15.4884 24.9426L14.7409 27.1177C15.7787 27.4744 16.8857 27.6563 18 27.6563V25.3563ZM15.4884 24.9426C14.6967 24.6705 13.9894 24.2757 13.4028 23.7891L11.9342 25.5592C12.7479 26.2343 13.703 26.7611 14.7409 27.1177L15.4884 24.9426ZM13.4028 23.7891C12.8166 23.3027 12.3655 22.7369 12.063 22.131L10.0052 23.1583C10.4605 24.0703 11.1202 24.8838 11.9342 25.5592L13.4028 23.7891ZM12.063 22.131C11.7611 21.5262 11.6102 20.888 11.6102 20.2507L9.31021 20.2507C9.3102 21.2564 9.54937 22.2452 10.0052 23.1583L12.063 22.131Z" fill="#FFFEFC"/>
</svg>
