<svg width="48" height="49" viewBox="0 0 48 49" fill="none" xmlns="http://www.w3.org/2000/svg">
<path fill-rule="evenodd" clip-rule="evenodd" d="M16.5753 34.403L22.9393 28.039L20.818 25.9177L14.454 32.2816L16.5753 34.403ZM17.636 16.3718L16.5754 15.3111L15.5147 16.3718L14.4541 17.4325L15.5147 18.4931L30.364 33.3424L31.4246 34.403L32.4853 33.3424L33.5459 32.2817L32.4853 31.221L27.5355 26.2713C26.7545 25.4902 26.7545 24.2239 27.5355 23.4428L32.4853 18.493L32.4918 18.4865L33.5459 17.4324L32.4919 16.3784L32.4853 16.3717L32.4786 16.3651L31.4246 15.3111L25.4067 21.3289C24.6251 22.1026 23.3643 22.1001 22.5858 21.3215L17.636 16.3718Z" fill="#AB884E"/>
</svg>
