<svg width="150" height="51" viewBox="0 0 150 51" fill="none" xmlns="http://www.w3.org/2000/svg">
<path fill-rule="evenodd" clip-rule="evenodd" d="M56.7471 2.11084C55.9378 2.11084 55.1397 2.11977 54.3524 2.13735L54.3078 0.13785C55.1101 0.119937 55.9231 0.11084 56.7471 0.11084C57.5575 0.11084 58.3674 0.124685 59.1767 0.151934L59.1094 2.1508C58.3222 2.1243 57.5347 2.11084 56.7471 2.11084ZM49.6129 2.35436C47.9821 2.46866 46.4028 2.62176 44.8738 2.81057L44.6287 0.825647C46.1934 0.632426 47.8078 0.475972 49.4731 0.359254L49.6129 2.35436ZM68.5192 3.06759C66.9588 2.81949 65.3941 2.6169 63.8267 2.46308L64.0221 0.472638C65.6306 0.630499 67.2349 0.838252 68.8333 1.0924L68.5192 3.06759ZM40.1923 3.52532C38.5864 3.81945 37.0426 4.15485 35.5589 4.52711L35.0722 2.58724C36.5984 2.20428 38.1844 1.85979 39.832 1.55805L40.1923 3.52532ZM77.78 5.06656C76.2516 4.65223 74.7157 4.27653 73.1739 3.94264L73.5972 1.98794C75.1738 2.32937 76.7431 2.71327 78.3033 3.13623L77.78 5.06656ZM31.0104 5.84015C29.4603 6.34946 27.9858 6.90076 26.5843 7.48755L25.8119 5.64271C27.2628 5.03528 28.7866 4.46561 30.3861 3.94008L31.0104 5.84015ZM86.8125 7.97734C85.3278 7.42461 83.8323 6.90373 82.3277 6.41789L82.9422 4.51465C84.4759 5.00985 85.9991 5.54042 87.5103 6.10301L86.8125 7.97734ZM22.3178 9.49255C20.8738 10.2508 19.5229 11.0473 18.2607 11.8721L17.1666 10.1979C18.4823 9.3381 19.8881 8.50941 21.388 7.72182L22.3178 9.49255ZM95.5786 11.6501C94.1427 10.9825 92.6927 10.3404 91.2303 9.72683L92.004 7.88256C93.4906 8.50624 94.9638 9.15869 96.4218 9.83658L95.5786 11.6501ZM104.061 15.9617C102.677 15.1985 101.274 14.4545 99.8564 13.733L100.763 11.9505C102.202 12.6823 103.623 13.4367 105.027 14.2102L104.061 15.9617ZM14.4669 14.6387C13.1967 15.6719 12.0435 16.7298 11.0002 17.7961L9.57064 16.3973C10.6668 15.2771 11.8759 14.1682 13.2049 13.0872L14.4669 14.6387ZM112.256 20.8168C110.923 19.9723 109.569 19.1408 108.194 18.3257L109.213 16.6053C110.606 17.4307 111.978 18.2726 113.327 19.1273L112.256 20.8168ZM7.93936 21.3332C6.93424 22.6555 6.08671 23.9627 5.38315 25.2236L3.63666 24.249C4.38646 22.9053 5.28564 21.5194 6.34714 20.1229L7.93936 21.3332ZM120.159 26.1404C118.88 25.2271 117.574 24.3198 116.242 23.4225L117.36 21.7639C118.707 22.6717 120.028 23.5893 121.321 24.5129L120.159 26.1404ZM127.765 31.882C126.545 30.9099 125.29 29.9353 124.002 28.9629L125.207 27.3667C126.509 28.3498 127.778 29.335 129.011 30.3177L127.765 31.882ZM3.47321 29.4366C3.20457 30.2134 2.99986 30.9462 2.85327 31.6242L0.898438 31.2015C1.0632 30.4395 1.29027 29.6295 1.58306 28.7829L3.47321 29.4366ZM135.067 38.0168C133.91 36.9918 132.707 35.952 131.459 34.9035L132.745 33.3721C134.007 34.4322 135.224 35.4836 136.393 36.5203L135.067 38.0168ZM148.651 49.0962C148.619 49.6475 148.146 50.0681 147.594 50.0355L138.61 49.5055C138.059 49.473 137.638 48.9997 137.671 48.4484C137.703 47.897 138.176 47.4765 138.728 47.509L145.37 47.9009L146.779 46.5906C146.784 46.5963 146.789 46.602 146.795 46.6077L147.185 39.994C147.217 39.4427 147.691 39.0221 148.242 39.0546C148.793 39.0872 149.214 39.5605 149.181 40.1118L148.651 49.0962ZM142.01 44.5356C140.937 43.4651 139.793 42.357 138.581 41.2207L139.949 39.7618C141.176 40.9121 142.335 42.0345 143.423 43.12L142.01 44.5356Z" fill="url(#paint0_linear_279_11860)"/>
<defs>
<linearGradient id="paint0_linear_279_11860" x1="8.51496" y1="1.48479" x2="42.5525" y2="91.7194" gradientUnits="userSpaceOnUse">
<stop stop-color="#D9B27F"/>
<stop offset="1" stop-color="#AB884E"/>
</linearGradient>
</defs>
</svg>
