<svg width="36" height="36" viewBox="0 0 36 36" fill="none" xmlns="http://www.w3.org/2000/svg">
<mask id="mask0_66_1771" style="mask-type:alpha" maskUnits="userSpaceOnUse" x="4" y="2" width="28" height="29">
<path d="M4.18494 12.7599C4.18494 12.0889 4.52144 11.4626 5.08098 11.0922L16.911 3.26123C17.5809 2.81775 18.4512 2.81822 19.1207 3.26243L30.9208 11.092C31.4793 11.4625 31.8151 12.0882 31.8151 12.7585V28.2199C31.8151 29.3245 30.9196 30.2199 29.8151 30.2199H6.18494C5.08037 30.2199 4.18494 29.3245 4.18494 28.2199V12.7599Z" fill="#C4C4C4"/>
</mask>
<g mask="url(#mask0_66_1771)">
<path fill-rule="evenodd" clip-rule="evenodd" d="M4.18494 11.4206V30.22H31.815V11.4206L19.5627 3.94402C18.6032 3.3585 17.3968 3.3585 16.4373 3.94402L4.18494 11.4206ZM6.68494 13.9237V24.0752L11.7803 16.2289L6.68494 13.9237ZM14.0843 17.2713L7.29891 27.72H28.7011L21.9157 17.2713L19.3396 18.4368C18.4881 18.822 17.5119 18.822 16.6603 18.4368L14.0843 17.2713ZM24.2196 16.2289L29.315 24.0752V13.9237L24.2196 16.2289ZM27.7679 11.8797L18.3091 16.1591C18.1126 16.248 17.8874 16.248 17.6908 16.159L8.23209 11.8797L17.7395 6.07807C17.8995 5.98049 18.1005 5.98049 18.2604 6.07807L27.7679 11.8797Z" fill="#FFFEFC"/>
</g>
</svg>
