<svg width="36" height="36" viewBox="0 0 36 36" fill="none" xmlns="http://www.w3.org/2000/svg">
<mask id="mask0_143_6754" style="mask-type:alpha" maskUnits="userSpaceOnUse" x="4" y="2" width="28" height="29">
<path d="M4.18457 12.76C4.18457 12.0889 4.52108 11.4626 5.08061 11.0922L16.9106 3.26129C17.5806 2.81781 18.4509 2.81828 19.1203 3.26249L30.9205 11.092C31.479 11.4626 31.8147 12.0883 31.8147 12.7586V28.22C31.8147 29.3246 30.9193 30.22 29.8147 30.22H6.18457C5.08 30.22 4.18457 29.3246 4.18457 28.22V12.76Z" fill="#C4C4C4"/>
</mask>
<g mask="url(#mask0_143_6754)">
<path fill-rule="evenodd" clip-rule="evenodd" d="M4.18457 11.4206V30.22H31.8147V11.4206L19.5623 3.94402C18.6028 3.3585 17.3965 3.3585 16.4369 3.94402L4.18457 11.4206ZM6.68457 13.9237V24.0752L11.78 16.2289L6.68457 13.9237ZM14.084 17.2713L7.29854 27.72H28.7007L21.9153 17.2713L19.3393 18.4368C18.4877 18.822 17.5115 18.822 16.66 18.4368L14.084 17.2713ZM24.2193 16.2289L29.3147 24.0752V13.9237L24.2193 16.2289ZM27.7675 11.8797L18.3088 16.1591C18.1123 16.248 17.887 16.248 17.6905 16.159L8.23173 11.8797L17.7392 6.07807C17.8991 5.98049 18.1002 5.98049 18.2601 6.07807L27.7675 11.8797Z" fill="#010115"/>
</g>
</svg>
