<svg width="36" height="36" viewBox="0 0 36 36" fill="none" xmlns="http://www.w3.org/2000/svg">
<rect x="9.94641" y="15.2648" width="2.6931" height="10.7008" fill="#FFFEFC" stroke="#FFFEFC"/>
<path fill-rule="evenodd" clip-rule="evenodd" d="M26.8645 26.4657H23.259V20.0179C23.259 17.9205 21.8702 17.7685 21.0612 17.7685C19.888 17.7685 19.2421 18.6375 19.1387 20.0422V26.4656H15.3701V14.866H19.1387V16.1731C19.1869 16.1198 19.2702 16.0358 19.4085 15.8954C19.449 15.8543 19.4918 15.8089 19.5375 15.7604C19.9248 15.3495 20.5222 14.7156 21.7287 14.58C22.3629 14.5087 23.5013 14.3873 24.8719 15.027C26.3993 15.74 26.7294 17.7327 26.7659 18.4232L26.8645 20.0858V26.4657Z" fill="#FFFEFC"/>
<path d="M12.9505 11.1519C12.9505 12.057 12.2114 12.796 11.293 12.796C10.3746 12.796 9.6355 12.057 9.6355 11.1519C9.6355 10.2468 10.3746 9.50781 11.293 9.50781C12.2114 9.50781 12.9505 10.2468 12.9505 11.1519Z" fill="#FFFEFC" stroke="#FFFEFC"/>
<mask id="path-4-inside-1_66_1741" fill="white">
<rect x="4.18494" y="4.18494" width="27.6301" height="27.6301" rx="2"/>
</mask>
<rect x="4.18494" y="4.18494" width="27.6301" height="27.6301" rx="2" stroke="#FFFEFC" stroke-width="5" stroke-linejoin="round" mask="url(#path-4-inside-1_66_1741)"/>
</svg>
