<svg width="36" height="36" viewBox="0 0 36 36" fill="none" xmlns="http://www.w3.org/2000/svg">
<rect x="9.94727" y="15.2648" width="2.6931" height="10.7008" fill="#010115" stroke="#010115"/>
<path fill-rule="evenodd" clip-rule="evenodd" d="M26.8636 26.4656H23.2581V20.0178C23.2581 17.9204 21.8692 17.7685 21.0602 17.7685C19.887 17.7685 19.2411 18.6375 19.1377 20.0422V26.4656H15.3691V14.866H19.1377V16.173C19.1859 16.1198 19.2692 16.0357 19.4076 15.8954C19.4481 15.8543 19.4908 15.8089 19.5365 15.7604C19.9238 15.3494 20.5212 14.7156 21.7277 14.5799C22.362 14.5086 23.5003 14.3872 24.8709 15.027C26.3983 15.7399 26.7284 17.7327 26.765 18.4231L26.8636 20.0858V26.4656Z" fill="#010115"/>
<path d="M12.9498 11.1519C12.9498 12.057 12.2107 12.7961 11.2923 12.7961C10.3739 12.7961 9.63477 12.057 9.63477 11.1519C9.63477 10.2469 10.3739 9.50784 11.2923 9.50784C12.2107 9.50784 12.9498 10.2469 12.9498 11.1519Z" fill="#010115" stroke="#010115"/>
<mask id="path-4-inside-1_125_5705" fill="white">
<rect x="4.18555" y="4.18494" width="27.6301" height="27.6301" rx="2"/>
</mask>
<rect x="4.18555" y="4.18494" width="27.6301" height="27.6301" rx="2" stroke="#010115" stroke-width="5" stroke-linejoin="round" mask="url(#path-4-inside-1_125_5705)"/>
</svg>
