<svg width="36" height="36" viewBox="0 0 36 36" fill="none" xmlns="http://www.w3.org/2000/svg">
<path fill-rule="evenodd" clip-rule="evenodd" d="M33.7336 7.36359L33.7325 7.85702L30.9384 10.2443L30.9458 26.0349L33.5415 28.0196L33.49 28.6192L21.4609 28.6104L21.4168 28.0615L24.0379 25.9484L24.1987 13.4345L17.0859 28.4685L16.2146 28.4792C16.2146 28.4792 7.87914 13.6459 7.95089 13.6115C8.02263 13.5773 8.02115 24.2003 8.02115 24.2003L11.6821 28.0966L11.6902 28.6324L2.27518 28.6364L2.26636 28.0217L5.98173 24.2426L5.9795 11.3276L2.67291 7.91937L2.67071 7.42061L11.8487 7.38521L18.7747 20.3121L25.0622 7.37737L33.7336 7.36359Z" fill="#FFFEFC"/>
</svg>
