<svg width="36" height="36" viewBox="0 0 36 36" fill="none" xmlns="http://www.w3.org/2000/svg">
<path fill-rule="evenodd" clip-rule="evenodd" d="M33.7339 7.36353L33.7327 7.85696L30.9387 10.2442L30.946 26.0348L33.5418 28.0195L33.4903 28.6191L21.4612 28.6104L21.417 28.0615L24.0381 25.9484L24.1989 13.4344L17.0861 28.4684L16.2148 28.4791C16.2148 28.4791 7.87939 13.6459 7.95113 13.6114C8.02288 13.5773 8.0214 24.2002 8.0214 24.2002L11.6823 28.0966L11.6904 28.6323L2.27543 28.6364L2.2666 28.0217L5.98197 24.2425L5.97975 11.3276L2.67316 7.91931L2.67096 7.42055L11.849 7.38515L18.7749 20.312L25.0625 7.37731L33.7339 7.36353Z" fill="#010115"/>
</svg>
