<svg width="234" height="154" viewBox="0 0 234 154" fill="none" xmlns="http://www.w3.org/2000/svg">
<path fill-rule="evenodd" clip-rule="evenodd" d="M43.3513 2.79729C58.8382 -1.93527 82.2916 2.23196 112.243 15.3805C119.85 18.7199 124.655 22.4817 126.723 26.8407C128.873 31.374 127.829 36.0041 125.086 40.3715C122.885 43.8761 119.49 47.3947 115.387 50.9006C120.203 53.1694 124.728 55.5744 128.84 58.0854C137.322 63.265 144.214 68.9947 148.224 75.0499C152.289 81.1878 153.469 87.8244 150.104 94.367C145.766 102.803 140.952 110.35 135.738 117.007C146.883 121.562 157.273 125.45 165.948 128.453C166.992 128.814 167.545 129.953 167.184 130.997C166.822 132.041 165.683 132.594 164.64 132.233C155.619 129.111 144.754 125.036 133.107 120.251C128.653 125.553 123.93 130.236 118.983 134.303C126.819 136.689 134.585 138.706 142.167 140.412C183.784 149.775 219.644 149.692 230.742 149.667C230.961 149.666 231.17 149.666 231.37 149.666C232.474 149.663 233.371 150.557 233.374 151.662C233.376 152.766 232.482 153.663 231.377 153.666C231.175 153.666 230.962 153.667 230.74 153.667C219.566 153.693 183.346 153.776 141.289 144.315C132.769 142.398 124 140.087 115.143 137.302C95.0797 152.174 71.6017 154.535 47.5664 150C27.2929 146.174 15.7335 136.511 13.2804 120.919C11.4584 109.337 14.7317 96.3004 22.8441 84.143C19.9482 81.2595 17.1302 78.2564 14.4 75.1286C5.62045 65.0704 1.17077 56.7735 0.570387 50.0364C0.264507 46.6039 0.958902 43.5672 2.5884 40.986C4.20371 38.4273 6.64997 36.4536 9.63258 34.965C13.1853 33.1918 17.6198 32.046 22.6583 31.4241C22.9647 25.8503 24.1516 20.9477 26.24 16.7774C29.6894 9.889 35.501 5.19621 43.3513 2.79729ZM22.5879 35.466C18.1294 36.0587 14.352 37.08 11.4189 38.5439C8.90504 39.7986 7.09857 41.3348 5.9708 43.1213C4.85724 44.8852 4.31824 47.0291 4.5546 49.6813C5.03869 55.1135 8.77598 62.6028 17.4135 72.4982C19.9311 75.3824 22.5261 78.1592 25.1903 80.8323C27.3668 77.9343 29.8252 75.1002 32.562 72.3632C34.4772 70.4478 36.4723 68.711 38.5284 67.1489C30.0302 59.2529 24.1678 51.0404 23.1391 42.8752C22.8149 40.302 22.6307 37.831 22.5879 35.466ZM41.875 64.7931C33.2399 56.9077 27.9813 49.3087 27.1077 42.3752C26.7832 39.799 26.61 37.3616 26.582 35.0619C28.7349 34.9068 31.0136 34.8359 33.4036 34.8479C42.6472 34.8943 53.3437 36.1781 64.4431 38.4464C79.1058 41.4429 94.3636 46.1345 107.788 51.8746C103.211 55.3576 97.9667 58.9191 92.4254 62.5446C89.8303 60.8994 87.015 59.5672 84.0465 58.5615C71.223 54.2171 55.4933 55.9335 41.875 64.7931ZM41.5706 69.8678C39.4392 71.4382 37.3712 73.2106 35.3905 75.1915C32.643 77.9393 30.2042 80.7736 28.0714 83.6573C33.2679 88.6373 38.7082 93.2425 44.3356 97.501C46.5307 95.0668 49.1131 92.6538 51.9515 90.2687C54.5462 88.0884 57.3929 85.9012 60.4078 83.7143C53.3909 79.1839 46.9999 74.544 41.5706 69.8678ZM63.9221 81.2157C56.8559 76.719 50.4416 72.1348 45.0068 67.5414C57.417 59.8495 71.4523 58.5181 82.763 62.35C84.8398 63.0536 86.8233 63.9303 88.6886 64.9726C86.8629 66.152 85.0146 67.338 83.158 68.5292C76.6411 72.7107 70.0227 76.9573 63.9221 81.2157ZM64.0483 86.0207C60.6275 88.4636 57.4161 90.9015 54.5248 93.3311C51.8718 95.5604 49.5302 97.7496 47.5664 99.8934C61.8171 110.219 77.1721 118.409 92.7466 124.904C97.116 120.263 100.665 114.217 102.777 106.854C94.673 103.001 86.6169 98.9233 78.9188 94.6926C73.7801 91.8685 68.7915 88.9709 64.0483 86.0207ZM103.747 102.886C95.9624 99.1693 88.2349 95.2483 80.8454 91.1871C76.2767 88.6763 71.8449 86.116 67.6142 83.5216C73.1949 79.6773 79.1993 75.8239 85.1967 71.975C87.5963 70.435 89.9949 68.8957 92.3647 67.358C95.3516 69.5957 97.9168 72.3341 99.9236 75.5321C103.841 81.775 105.71 89.8955 104.295 99.7256C104.14 100.801 103.957 101.855 103.747 102.886ZM106.438 108.579C104.305 115.69 100.901 121.706 96.6904 126.511C102.584 128.857 108.498 130.966 114.385 132.862C119.586 128.829 124.552 124.092 129.231 118.644C121.808 115.54 114.123 112.165 106.438 108.579ZM131.898 115.423C123.96 112.12 115.704 108.501 107.462 104.642C107.775 103.231 108.04 101.782 108.254 100.296C109.79 89.6311 107.786 80.5359 103.312 73.406C101.29 70.1849 98.7812 67.3907 95.9029 65.0471C101.694 61.2357 107.203 57.4453 111.948 53.7141C117.292 56.1587 122.284 58.7687 126.755 61.4992C135.024 66.5482 141.347 71.91 144.889 77.2585C148.376 82.5241 149.085 87.6032 146.547 92.5377C142.125 101.138 137.213 108.763 131.898 115.423ZM110.418 135.772C104.849 133.918 99.2578 131.872 93.6833 129.613C88.7203 134.239 82.9241 137.398 76.892 138.941C61.951 142.764 45.828 136.575 38.0468 118.85C35.8781 113.91 36.7505 108.919 39.424 104.16C40.0957 102.964 40.8862 101.772 41.7806 100.584C36.2493 96.3906 30.8919 91.8653 25.7608 86.982C18.4111 98.2657 15.6246 110.081 17.2318 120.297C19.3896 134.012 29.4816 142.517 48.3081 146.069C70.1804 150.197 91.6988 148.734 110.418 135.772ZM44.9923 102.968C44.1907 104.031 43.4942 105.081 42.9115 106.119C40.6542 110.137 40.1895 113.78 41.7095 117.242C48.6831 133.128 62.8074 138.416 75.9005 135.066C80.705 133.837 85.4056 131.43 89.5765 127.909C74.2325 121.389 59.0923 113.215 44.9923 102.968ZM111.352 49.0618C97.1493 42.796 80.835 37.7136 65.244 34.5274C53.9612 32.2217 42.9953 30.896 33.4237 30.8479C31.1036 30.8363 28.8524 30.8995 26.6889 31.0446C27.0201 26.1759 28.0875 22.0213 29.8166 18.5684C32.7302 12.75 37.6158 8.73257 44.5202 6.62267C58.5428 2.3376 80.8292 5.95843 110.635 19.0431C117.967 22.2621 121.669 25.5197 123.108 28.5549C124.465 31.4157 124.016 34.5543 121.699 38.244C119.567 41.6386 115.988 45.2538 111.352 49.0618Z" fill="url(#paint0_linear_159_5542)"/>
<defs>
<linearGradient id="paint0_linear_159_5542" x1="-48.4957" y1="-33.8753" x2="99.0151" y2="217.334" gradientUnits="userSpaceOnUse">
<stop stop-color="#151540"/>
<stop offset="0.484374" stop-color="#1C1C55"/>
<stop offset="1" stop-color="#151540"/>
</linearGradient>
</defs>
</svg>
